<svg width="150" height="39" viewBox="0 0 150 39" fill="none" xmlns="http://www.w3.org/2000/svg">
<path d="M26.9874 0.342592C26.5493 0.309594 26.1091 0.368703 25.6952 0.516114C25.2812 0.663525 24.9028 0.895972 24.5841 1.19849C24.2655 1.50101 24.0137 1.8669 23.845 2.27261C23.6763 2.67832 23.5944 3.11485 23.6046 3.55412C23.5948 3.99049 23.6758 4.42413 23.8426 4.82749C24.0094 5.23085 24.2582 5.59512 24.5733 5.89714C24.8884 6.19917 25.2629 6.43235 25.673 6.58186C26.0831 6.73138 26.5197 6.79397 26.9553 6.76565C27.8142 6.76565 28.6378 6.42447 29.2451 5.81718C29.8524 5.20988 30.1936 4.38621 30.1936 3.52736C30.1936 2.66851 29.8524 1.84484 29.2451 1.23754C28.6378 0.630242 27.8142 0.289066 26.9553 0.289066L26.9874 0.342592Z" fill="#FF7400"/>
<path d="M1.33814 23.4122C3.55694 24.5372 6.00183 25.1447 8.48914 25.1892C11.4545 25.1892 13.0174 23.9581 13.0174 22.0955C13.0174 20.2328 11.6578 19.3014 8.23222 18.0703C3.48986 16.4218 0.396089 13.7883 0.396089 9.64542C0.396089 4.77461 4.46402 1.08135 11.1975 1.08135C13.6987 1.03314 16.1811 1.52232 18.477 2.51583L17.0425 7.6971C15.1811 6.79429 13.1378 6.32924 11.0691 6.33755C8.27504 6.33755 6.9262 7.61146 6.9262 9.08876C6.9262 10.9086 8.53196 11.7115 12.2145 13.1139C17.2566 14.9766 19.6224 17.5993 19.6224 21.6244C19.6224 26.4096 15.9399 30.4775 8.10376 30.4775C5.3067 30.5139 2.53722 29.9212 0 28.7433L1.33814 23.4122Z" fill="#3699FF"/>
<path d="M70.3 30.06L69.9146 28.0367H69.7861C69.0489 28.8745 68.1338 29.5371 67.1078 29.976C66.0817 30.415 64.9706 30.6192 63.8555 30.5738C62.9935 30.6204 62.131 30.4907 61.3208 30.1926C60.5107 29.8945 59.7698 29.4343 59.1436 28.8401C58.5173 28.2459 58.0188 27.5302 57.6786 26.7368C57.3384 25.9434 57.1635 25.089 57.1648 24.2257C57.1648 18.8731 61.9928 16.2611 69.3151 16.3039V16.0042C69.3151 14.9337 68.7263 13.3386 65.5469 13.3386C63.5385 13.358 61.5692 13.8964 59.8304 14.9015L58.6421 10.748C61.1338 9.49594 63.8936 8.87123 66.6816 8.9281C73.5864 8.9281 75.781 12.996 75.781 17.8669V25.0607C75.748 26.7467 75.8482 28.4326 76.0807 30.1028L70.3 30.06ZM69.5827 20.2755C66.1999 20.2755 63.5664 21.0356 63.5664 23.487C63.5446 23.822 63.5959 24.1578 63.7169 24.471C63.8379 24.7841 64.0257 25.0672 64.2671 25.3005C64.5085 25.5338 64.7979 25.7117 65.115 25.8219C65.4322 25.9321 65.7695 25.9719 66.1036 25.9385C66.8396 25.9451 67.559 25.7202 68.1603 25.2957C68.7615 24.8712 69.2142 24.2684 69.4542 23.5727C69.5388 23.2221 69.5819 22.8628 69.5827 22.5022V20.2755Z" fill="#3699FF"/>
<path d="M133.504 30.06L133.129 28.0367H133.001C132.263 28.8745 131.348 29.5371 130.322 29.976C129.296 30.415 128.185 30.6192 127.07 30.5738C126.208 30.6204 125.346 30.4907 124.535 30.1926C123.725 29.8945 122.984 29.4343 122.358 28.8401C121.732 28.2459 121.233 27.5302 120.893 26.7368C120.553 25.9434 120.378 25.089 120.379 24.2257C120.379 18.8731 125.207 16.2611 132.53 16.3039V16.0042C132.53 14.9337 131.941 13.3386 128.761 13.3386C126.753 13.358 124.784 13.8964 123.045 14.9015L121.857 10.748C124.348 9.49594 127.108 8.87123 129.896 8.9281C136.801 8.9281 138.996 12.996 138.996 17.8669V25.0607C138.963 26.7467 139.063 28.4326 139.295 30.1028L133.504 30.06ZM132.744 20.2755C129.361 20.2755 126.728 21.0356 126.728 23.487C126.706 23.822 126.757 24.1578 126.878 24.471C126.999 24.7841 127.187 25.0672 127.428 25.3005C127.67 25.5338 127.959 25.7117 128.276 25.8219C128.593 25.9321 128.931 25.9719 129.265 25.9385C130.001 25.9451 130.72 25.7202 131.321 25.2957C131.923 24.8712 132.375 24.2684 132.615 23.5727C132.7 23.2221 132.743 22.8628 132.744 22.5022V20.2755Z" fill="#3699FF"/>
<path d="M86.6151 6.81915V0H80.7166C80.7166 0.856408 80.7915 3.70396 80.8236 6.81915H86.6151Z" fill="#FF7400"/>
<path d="M93.5833 8.89573C92.2494 8.82975 90.9203 9.10121 89.719 9.685C88.5177 10.2688 87.4831 11.1461 86.7107 12.2357H86.625V9.35605H80.855C80.855 12.3321 80.855 15.1368 80.855 16.3037V38.4418H87.278V28.1542H87.3637C88.0047 28.9443 88.8243 29.5708 89.7549 29.9821C90.6855 30.3934 91.7004 30.5778 92.7162 30.52C97.3301 30.52 102.115 26.9659 102.115 19.4295C102.18 12.8245 98.1116 8.89573 93.5833 8.89573ZM91.2175 25.5743C90.3371 25.5662 89.4854 25.2603 88.8011 24.7062C88.1168 24.1522 87.6404 23.3828 87.4493 22.5233C87.3583 22.076 87.3152 21.6202 87.3209 21.1638V18.3376C87.3192 17.9521 87.3623 17.5677 87.4493 17.1922C87.6368 16.3014 88.1192 15.4999 88.8185 14.9172C89.5178 14.3344 90.3932 14.0045 91.3032 13.9806C94.1828 13.9806 95.6601 16.4749 95.6601 19.7828C95.6601 23.2406 94.0115 25.5743 91.2175 25.5743Z" fill="#3699FF"/>
<path d="M6.78662 1.68072C10.6912 2.05455 14.4065 3.54068 17.4917 5.96276L18.4659 2.44078C16.17 1.44727 13.6876 0.958094 11.1864 1.0063C9.69431 1.0094 8.21115 1.23674 6.78662 1.68072V1.68072Z" fill="#FF7400"/>
<path d="M30.2096 9.3562H23.7759V38.4419H30.2096V9.3562Z" fill="#3699FF"/>
<path d="M113.399 0H107.094V6.81915H113.399V0Z" fill="#FF7400"/>
<path d="M107.051 9.3562H104.3V14.12H107.051V22.5877C107.051 25.5102 107.64 27.5013 108.828 28.7217C109.476 29.3214 110.236 29.787 111.065 30.092C111.893 30.397 112.774 30.5352 113.656 30.4988C115.076 30.5542 116.494 30.3697 117.852 29.9528V25.082C117.224 25.1969 116.586 25.2542 115.947 25.2533C113.999 25.2533 113.41 24.1078 113.41 21.6135V14.12H118.024V9.3562H107.051Z" fill="#3699FF"/>
<path d="M150 23.2408H143.695V30.0599H150V23.2408Z" fill="#FF7400"/>
<path d="M41.8039 0H35.3701V6.81915H41.8039V0Z" fill="#FF7400"/>
<path d="M55.3126 9.3562H47.5621L43.3657 15.5759C42.8626 16.3787 42.3487 17.2244 41.8884 18.0701H41.8028V9.3562H35.3262V38.4419H41.7492V23.5833L43.3978 21.5493L48.3971 30.0599H56.3189L47.9047 17.7383L55.3126 9.3562Z" fill="#3699FF"/>
</svg>
