<svg width="1254" height="1013" viewBox="0 0 1254 1013" fill="none" xmlns="http://www.w3.org/2000/svg">
<path opacity="0.24" d="M408.107 16.5305C322.239 50.5654 272.41 138.017 207.415 203.711C170.142 241.474 126.928 272.643 88.607 309.311C50.2856 345.978 16.3904 389.914 4.74259 441.63C-17.4116 539.658 44.3452 635.404 60.5125 734.597C65.6608 766.279 66.1966 798.963 76.47 829.34C84.6002 853.381 98.5776 875.116 114.745 894.568C180.229 973.913 285.036 1019.13 387.7 1012.33C455.421 1007.83 520.486 982.323 588.393 979.504C690.731 975.241 794.024 1022.76 893.287 997.582C939.063 985.934 979.597 959.726 1018.55 933.029C1095.84 880.031 1176.31 815.037 1194.27 723.042C1207.45 655.484 1183.97 584.27 1200.35 517.434C1209.85 478.647 1232.19 444.193 1243.98 406.034C1269.02 325.128 1242.28 233.087 1185.23 170.492C1128.18 107.896 1044.45 73.3253 960.075 65.9872C904.748 61.165 849.071 67.2452 793.534 66.1736C658 63.7042 548.743 -39.2161 408.107 16.5305Z" fill="#3699FF"/>
<path opacity="0.24" d="M292.258 822.934C286.48 824.099 280.33 825.613 276.44 829.923C270.965 836.166 272.2 846.23 277.209 852.869C282.217 859.508 290.021 863.282 297.755 866.241C334.19 880.218 374.212 880.334 413.209 880.381C491.925 880.381 573.623 879.915 644.908 846.486C587.297 824.238 533.647 825.333 473.684 821.093C411.298 816.877 354.667 810.168 292.258 822.934Z" fill="#68E1FD"/>
<path d="M765.533 459.148L728.492 479.439L675.984 609.126L787.151 548.254L765.533 459.148Z" fill="#3699FF"/>
<path d="M925.225 459.148L962.265 479.439L1014.77 609.126L903.606 548.254L925.225 459.148Z" fill="#3699FF"/>
<path d="M485.846 814.548C485.128 817.067 485.28 819.754 486.277 822.176C487.275 824.598 489.059 826.613 491.343 827.896C493.614 828.911 496 829.647 498.448 830.086C505.962 831.928 512.917 835.565 518.716 840.685C519.66 841.308 520.429 842.161 520.951 843.164C521.472 844.166 521.73 845.286 521.698 846.416C521.162 849.002 518.133 850.097 515.571 850.702C510.183 852.166 504.681 853.171 499.124 853.708C487.826 854.476 476.644 851.378 465.741 848.233C461.595 847.045 455.351 845.251 454.396 840.429C454.204 837.106 454.36 833.772 454.862 830.482L455.584 813.709" fill="#606161"/>
<path d="M421.479 834.558C420.983 835.839 420.869 837.235 421.15 838.578C421.431 839.922 422.096 841.155 423.063 842.13C425.023 844.047 427.261 845.657 429.702 846.905C436.145 850.815 441.828 855.858 446.475 861.791C448.618 864.517 450.622 868.081 449.271 871.272C448.551 872.752 447.408 873.985 445.986 874.813C441.336 877.518 435.976 878.753 430.611 878.354C417.076 878.005 397.065 869.549 393.151 854.896C391.917 850.353 393.268 844.133 393.454 839.451L393.943 828.152" fill="#606161"/>
<path d="M498.191 555.43L487.662 818.671C483.598 821.656 478.724 823.338 473.684 823.493C463.97 824.052 462.223 824.751 455.234 818.391L424.717 542.314L498.191 540.777V555.43Z" fill="#606161"/>
<path d="M498.191 555.43L487.662 818.671C483.598 821.656 478.724 823.338 473.684 823.493C463.97 824.052 462.223 824.751 455.234 818.391L424.717 542.314L498.191 540.777V555.43Z" fill="url(#paint0_linear)"/>
<path d="M456.679 579.075L426.395 835.094C426.395 835.094 422.015 839.59 410.088 839.753C396.553 839.916 395.318 838.076 392.29 831.227L386.303 537.562L455.84 549.419L456.679 579.075Z" fill="#606161"/>
<path d="M456.679 579.075L426.395 835.094C426.395 835.094 422.015 839.59 410.088 839.753C396.553 839.916 395.318 838.076 392.29 831.227L386.303 537.562L455.84 549.419L456.679 579.075Z" fill="url(#paint1_linear)"/>
<path d="M466.114 553.449C456.625 556.658 446.85 558.952 436.924 560.298C423.762 561.649 409.971 555.29 399.651 554.754C385.883 554.055 385.511 553.612 385.511 544.643C385.511 540.124 499.986 529.292 499.986 529.292C499.986 529.292 499.45 537.562 499.473 545.203C499.473 550.933 497.027 550.607 486.614 551.213C476.201 551.819 474.197 548.65 466.114 553.449Z" fill="#F2FBFF"/>
<path d="M420.944 351.336C420.944 351.336 401.748 356.321 388.05 366.292C379.594 372.442 385.441 544.644 385.441 544.644C386.28 544.504 423.064 559.413 458.636 553.286C488.92 548.068 499.846 533.858 499.846 533.858C499.846 533.858 502.572 368.621 496.678 361.842C494.069 358.814 465.252 348.168 465.252 348.168C465.252 348.168 452.672 367.084 420.944 351.336Z" fill="#3699FF"/>
<path d="M427.233 313.084L420.943 351.336C420.943 351.336 434.921 371.929 452.789 368.854C470.656 365.779 466.16 357.486 466.16 357.486L463.831 325.175C463.831 325.175 447.78 327.994 427.233 313.084Z" fill="#C8A59C"/>
<path d="M425.021 326.503L427.35 313.084C447.897 327.994 458.566 321.657 458.566 321.657L463.528 339.013C460.737 341.934 456.977 343.739 452.952 344.091C442.981 344.79 433.011 336.986 425.021 326.503Z" fill="#B58B81"/>
<path d="M421.735 346.723L403.098 355.483C403.098 355.483 432.451 386.512 441.396 385.907C441.396 385.907 449.853 370.205 457.703 367.736L421.735 346.723Z" fill="#F2FBFF"/>
<path d="M464.902 352.058C463.363 357.618 460.957 362.901 457.774 367.713C459.521 368.388 470.913 376.332 471.099 381.69C471.099 381.69 482.421 356.065 477.738 352.035C473.823 350.041 469.802 348.26 465.694 346.7L464.902 352.058Z" fill="#F2FBFF"/>
<path d="M395.62 361.749C395.62 361.749 366.803 371.068 363.542 417.077C360.56 459.009 353.059 489.456 359.162 501.873C367.106 518.063 422.666 520.742 422.666 520.742C424.01 512.684 423.669 504.435 421.664 496.515L391.217 484.354C391.217 484.354 396.109 368.924 395.62 361.749Z" fill="#3699FF"/>
<path d="M411.135 285.223C412.649 306.445 434.431 343.951 455.63 342.437C476.829 340.923 483.002 297.01 481.488 275.788C479.974 254.566 468.07 242.522 446.824 244.036C441.776 244.396 436.849 245.748 432.323 248.013C427.797 250.278 423.762 253.412 420.448 257.237C417.134 261.061 414.606 265.501 413.008 270.303C411.41 275.105 410.773 280.175 411.135 285.223V285.223Z" fill="#C8A59C"/>
<path d="M461.105 517.411C460.592 513.357 462.502 509.467 463.061 502.572C463.621 495.676 459.148 493.882 452.602 493.253C450.808 493.044 449.41 492.834 448.222 492.648C442.119 494.115 446.987 501.523 447.314 506.625C447.64 511.727 446.498 519.042 448.269 520.602C449.014 521.278 454.628 520.975 461.128 520.136C461.233 519.23 461.225 518.315 461.105 517.411V517.411Z" fill="#B58B81"/>
<path d="M465.136 320.516C465.136 320.516 464.553 319.98 460.104 320.306C454.821 320.576 449.525 320.2 444.333 319.188C440.908 318.326 439.277 318.862 439.673 323.451C440.07 328.04 443.657 332.117 452.649 332.606C462.736 333.142 466.976 329.345 467.768 324.802C468.327 321.517 466.254 320.423 465.136 320.516Z" fill="#C8A59C"/>
<path d="M426.394 497.237C430.176 496.432 433.903 495.39 437.553 494.115C442.352 492.298 443.866 493.37 450.901 494.115C457.936 494.861 462.759 496.654 462.153 503.713C461.547 510.772 459.521 514.732 460.056 518.855C460.592 522.979 459.311 526.52 453.068 526.659C446.824 526.799 426.394 520.509 426.394 520.509" fill="#C8A59C"/>
<path d="M419.592 495.396H430.284C430.284 495.396 434.943 510.818 428.887 521.511L417.076 521.022C417.076 521.022 421.083 506.019 419.592 495.396Z" fill="#F2FBFF"/>
<path d="M424.996 502.874C426.296 502.874 427.349 501.758 427.349 500.382C427.349 499.005 426.296 497.889 424.996 497.889C423.697 497.889 422.644 499.005 422.644 500.382C422.644 501.758 423.697 502.874 424.996 502.874Z" fill="#D2E8EC"/>
<path d="M466.672 295.24C466.322 293.891 466.243 292.487 466.439 291.107C466.635 289.728 467.102 288.401 467.813 287.203C468.512 285.999 469.445 284.948 470.557 284.111C471.67 283.275 472.939 282.671 474.289 282.334C475.658 281.912 477.099 281.772 478.523 281.922C479.948 282.072 481.328 282.51 482.579 283.208C483.829 283.906 484.926 284.851 485.801 285.985C486.677 287.119 487.314 288.418 487.673 289.805C488.032 291.192 488.107 292.637 487.892 294.053C487.677 295.47 487.177 296.828 486.423 298.045C485.668 299.263 484.675 300.316 483.502 301.139C482.33 301.962 481.003 302.539 479.601 302.834H479.228C476.56 303.433 473.763 302.977 471.423 301.561C469.083 300.146 467.381 297.881 466.672 295.24V295.24ZM474.918 284.804C472.853 285.341 471.086 286.675 470.003 288.513C468.92 290.352 468.61 292.545 469.141 294.611C469.536 296.144 470.373 297.527 471.548 298.587C472.723 299.647 474.185 300.338 475.75 300.573C477.315 300.808 478.915 300.577 480.35 299.909C481.785 299.241 482.991 298.165 483.818 296.815C484.646 295.466 485.058 293.903 485.002 292.321C484.947 290.739 484.428 289.209 483.508 287.92C482.589 286.632 481.311 285.643 479.833 285.076C478.355 284.509 476.743 284.39 475.198 284.734L474.918 284.804Z" fill="#292F67"/>
<path d="M445.031 302.998C443.667 302.198 442.474 301.135 441.523 299.872C440.571 298.608 439.879 297.169 439.487 295.636V295.636C438.896 293.335 439.001 290.911 439.787 288.669C440.573 286.428 442.005 284.469 443.904 283.041C445.802 281.613 448.081 280.78 450.453 280.646C452.825 280.512 455.183 281.084 457.23 282.289C459.277 283.495 460.92 285.28 461.954 287.419C462.987 289.558 463.363 291.955 463.035 294.308C462.707 296.66 461.689 298.863 460.11 300.638C458.531 302.412 456.462 303.679 454.163 304.279H453.721C450.767 304.98 447.657 304.521 445.031 302.998V302.998ZM448.759 283.453C447.542 283.761 446.398 284.309 445.395 285.064C444.392 285.819 443.549 286.766 442.916 287.851C442.283 288.935 441.872 290.134 441.707 291.379C441.542 292.624 441.627 293.889 441.956 295.1C442.424 296.9 443.411 298.522 444.793 299.766C446.176 301.009 447.894 301.818 449.733 302.093C451.572 302.367 453.451 302.095 455.137 301.31C456.822 300.524 458.24 299.261 459.213 297.676C460.185 296.092 460.671 294.256 460.609 292.398C460.546 290.539 459.939 288.74 458.862 287.224C457.785 285.708 456.286 284.543 454.552 283.872C452.818 283.201 450.925 283.055 449.108 283.453H448.759Z" fill="#292F67"/>
<path d="M466.393 292.724L468.839 292.002C468.683 291.509 468.417 291.059 468.062 290.684C467.707 290.308 467.272 290.018 466.789 289.835C465.71 289.539 464.578 289.484 463.476 289.673C462.373 289.862 461.325 290.291 460.406 290.93L461.617 293.26C464.11 291.909 465.321 292.048 465.81 292.258C466.057 292.333 466.266 292.499 466.393 292.724Z" fill="#292F67"/>
<path d="M440.488 292.049L440.394 289.509L425.858 289.929L425.974 292.468L440.488 292.049Z" fill="#292F67"/>
<path d="M496.677 361.842C496.677 361.842 512.775 406.71 522.792 443.074C532.809 479.439 562.395 443.703 562.395 443.703C562.395 443.703 578.702 443.074 579.307 453.022C579.913 462.969 569.989 494.954 541.708 495.653C513.427 496.352 483.469 459.288 483.469 459.288L496.677 361.842Z" fill="#3699FF"/>
<path d="M539.985 517.737L482.468 516.898C480.978 516.983 479.489 516.716 478.121 516.119C476.754 515.523 475.545 514.613 474.593 513.464C473.641 512.315 472.972 510.958 472.641 509.503C472.309 508.048 472.324 506.536 472.684 505.088L494.652 403.402C495.509 400.128 497.424 397.229 500.1 395.157C502.775 393.084 506.06 391.953 509.444 391.94L566.961 392.779C568.453 392.69 569.944 392.953 571.314 393.548C572.685 394.143 573.895 395.053 574.849 396.203C575.802 397.354 576.47 398.713 576.8 400.17C577.129 401.627 577.111 403.141 576.746 404.59L554.801 506.276C553.939 509.551 552.019 512.451 549.34 514.523C546.661 516.596 543.372 517.726 539.985 517.737V517.737Z" fill="#68E1FD"/>
<path d="M539.985 517.737L482.468 516.898C480.978 516.983 479.489 516.716 478.121 516.119C476.754 515.523 475.545 514.613 474.593 513.464C473.641 512.315 472.972 510.958 472.641 509.503C472.309 508.048 472.324 506.536 472.684 505.088L494.652 403.402C495.509 400.128 497.424 397.229 500.1 395.157C502.775 393.084 506.06 391.953 509.444 391.94L566.961 392.779C568.453 392.69 569.944 392.953 571.314 393.548C572.685 394.143 573.895 395.053 574.849 396.203C575.802 397.354 576.47 398.713 576.8 400.17C577.129 401.627 577.111 403.141 576.746 404.59L554.801 506.276C553.939 509.551 552.019 512.451 549.34 514.523C546.661 516.596 543.372 517.726 539.985 517.737V517.737Z" fill="url(#paint2_linear)"/>
<path d="M540.38 518.343L485.356 517.528C483.933 517.599 482.513 517.336 481.209 516.76C479.906 516.184 478.755 515.31 477.85 514.21C476.944 513.11 476.308 511.813 475.994 510.423C475.679 509.033 475.694 507.589 476.038 506.206L497.004 408.9C497.834 405.766 499.673 402.992 502.238 401.009C504.802 399.025 507.949 397.942 511.191 397.927L566.239 398.743C567.663 398.667 569.086 398.926 570.392 399.501C571.698 400.075 572.851 400.948 573.757 402.05C574.664 403.152 575.299 404.451 575.612 405.843C575.924 407.235 575.906 408.681 575.557 410.065L554.591 507.371C553.76 510.509 551.917 513.285 549.348 515.269C546.779 517.252 543.627 518.333 540.38 518.343V518.343Z" fill="#F8C32D"/>
<path d="M577.444 448.386C577.401 446.132 576.918 443.908 576.023 441.84C575.409 439.738 574.174 437.871 572.482 436.482C570.609 435.427 568.48 434.911 566.332 434.991C564.165 434.991 561.976 434.991 559.809 434.991C557.42 434.951 555.046 435.379 552.82 436.249C549.638 437.981 547.164 440.776 545.832 444.146C542.85 450.506 542.221 458.589 546.484 464.157C548.366 466.368 550.582 468.27 553.053 469.795C555.732 471.635 558.877 473.569 562.022 472.707C563.519 472.18 564.886 471.338 566.029 470.237L570.688 466.37C572.278 465.188 573.623 463.709 574.648 462.014C575.503 459.826 575.915 457.49 575.86 455.142C576.501 452.918 577.029 450.663 577.444 448.386V448.386Z" fill="#C8A59C"/>
<path d="M478.646 248.276C475.657 241.187 471.286 234.764 465.787 229.383L465.344 233.646C456.614 229.659 447.19 227.412 437.599 227.03L438.438 230.012C434.95 229.141 431.602 227.784 428.491 225.982L425.485 231.34C423.444 229.72 421.205 228.366 418.823 227.31L414.933 241.287C413.834 240.699 412.816 239.971 411.904 239.121C410.879 238.422 409.225 238.212 408.573 239.26C408.321 239.765 408.216 240.33 408.27 240.891V246.901L402.539 244.851C402.295 244.737 402.029 244.678 401.759 244.678C401.489 244.678 401.223 244.737 400.978 244.851C400.788 245.009 400.632 245.205 400.52 245.425C400.408 245.645 400.342 245.886 400.326 246.133C396.156 266.959 404.985 294.052 418.706 310.242C419.234 307.748 418.974 305.151 417.961 302.811C416.819 299.829 413.302 298.152 413.908 295.007C414.068 293.417 414.812 291.942 415.994 290.867C417.177 289.792 418.716 289.192 420.314 289.183C424.763 289.696 423.109 291.326 426.278 294.495C427.396 288.321 424.717 278.188 426.65 272.247C427.291 270.684 428.288 269.292 429.562 268.183C430.836 267.074 432.352 266.279 433.989 265.86C435.625 265.441 437.337 265.411 438.987 265.772C440.637 266.132 442.18 266.874 443.493 267.937C443.353 263.977 448.012 261.438 451.973 261.578C455.933 261.718 460.429 263.232 464.622 263.744C468.186 264.164 471.844 266.656 475.268 266.61C484.074 266.47 480.533 253.238 478.646 248.276Z" fill="#606161"/>
<path opacity="0.24" d="M843.434 800.989C878.854 800.989 907.567 797.495 907.567 793.185C907.567 788.875 878.854 785.381 843.434 785.381C808.015 785.381 779.301 788.875 779.301 793.185C779.301 797.495 808.015 800.989 843.434 800.989Z" fill="#68E1FD"/>
<path opacity="0.24" d="M839.544 851.89C896.99 851.89 943.559 846.227 943.559 839.241C943.559 832.255 896.99 826.591 839.544 826.591C782.098 826.591 735.528 832.255 735.528 839.241C735.528 846.227 782.098 851.89 839.544 851.89Z" fill="#68E1FD"/>
<path d="M841.477 762.318C931.461 762.318 1004.41 753.443 1004.41 742.494C1004.41 731.545 931.461 722.669 841.477 722.669C751.493 722.669 678.547 731.545 678.547 742.494C678.547 753.443 751.493 762.318 841.477 762.318Z" stroke="#FF7400" stroke-width="6.21" stroke-miterlimit="10"/>
<path d="M845.111 129.887C845.111 129.887 670.044 232.691 772.895 553.31H915.604C915.604 553.31 1021.55 298.175 845.111 129.887Z" fill="#68E1FD"/>
<path d="M845.111 129.887C845.111 129.887 670.044 232.691 772.895 553.31H915.604C915.604 553.31 1021.55 298.175 845.111 129.887Z" fill="url(#paint3_linear)"/>
<path d="M845.919 398.838C872.384 398.838 893.838 377.384 893.838 350.919C893.838 324.454 872.384 303 845.919 303C819.454 303 798 324.454 798 350.919C798 377.384 819.454 398.838 845.919 398.838Z" fill="#F8C32D"/>
<path d="M784.869 665.944L802.48 633.866C805.595 673.243 815.264 711.823 831.087 748.015C859.531 719.711 866.66 676.986 872.158 637.244C880.234 656.75 887.447 676.575 893.799 696.718C906.708 671.113 910.92 641.999 905.797 613.785L916.746 632.422C924.229 605.388 921 576.509 907.73 551.795C885.118 553.473 862.459 554.583 839.753 555.127C828.882 555.406 817.964 555.546 807 555.546C799.801 555.546 786.546 552.727 779.977 556.385C767.35 563.373 771.963 593.495 772.755 605.865C773.409 616.093 774.756 626.266 776.785 636.312C777.74 641.041 786.663 662.683 784.869 665.944Z" fill="#F8C32D"/>
<path d="M809.329 162.618C809.329 162.618 845.624 174.848 875.14 162.618L845.834 130.749C845.135 129.989 844.281 129.389 843.329 128.988C842.378 128.587 841.351 128.396 840.32 128.427C839.288 128.458 838.275 128.71 837.349 129.167C836.423 129.624 835.607 130.275 834.955 131.075L809.329 162.618Z" fill="#3699FF"/>
<path d="M904.212 670.114C928.626 672.444 944.188 676.241 944.188 680.388C944.188 687.749 895.267 693.713 834.698 693.713C774.129 693.713 725.208 687.749 725.208 680.388C725.208 674.308 758.847 669.159 804.763 667.575" stroke="#FF7400" stroke-width="4.17" stroke-miterlimit="10"/>
<path d="M420.944 351.336C420.944 351.336 401.748 356.321 388.05 366.292C379.594 372.442 385.441 544.644 385.441 544.644C386.28 544.504 423.064 559.413 458.636 553.286C488.92 548.068 499.846 533.858 499.846 533.858C499.846 533.858 502.572 368.621 496.678 361.842C494.069 358.814 465.252 348.168 465.252 348.168C465.252 348.168 452.672 367.084 420.944 351.336Z" fill="url(#paint4_linear)"/>
<path d="M925.225 459.148L962.265 479.439L1014.77 609.126L903.606 548.254L925.225 459.148Z" fill="url(#paint5_linear)"/>
<path d="M1031.99 288.009C1072.05 288.009 1104.52 255.547 1104.52 215.504C1104.52 175.461 1072.05 143 1031.99 143C991.936 143 959.463 175.461 959.463 215.504C959.463 255.547 991.936 288.009 1031.99 288.009Z" fill="#E6E6E6"/>
<path d="M1024.86 173.904C1029.46 173.904 1033.18 170.178 1033.18 165.583C1033.18 160.988 1029.46 157.263 1024.86 157.263C1020.26 157.263 1016.54 160.988 1016.54 165.583C1016.54 170.178 1020.26 173.904 1024.86 173.904Z" fill="#CBCBCB"/>
<path d="M1039.13 257.105C1043.72 257.105 1047.45 253.38 1047.45 248.785C1047.45 244.19 1043.72 240.465 1039.13 240.465C1034.53 240.465 1030.8 244.19 1030.8 248.785C1030.8 253.38 1034.53 257.105 1039.13 257.105Z" fill="#CBCBCB"/>
<path d="M1071.23 208.373C1074.52 208.373 1077.18 205.712 1077.18 202.43C1077.18 199.148 1074.52 196.487 1071.23 196.487C1067.95 196.487 1065.29 199.148 1065.29 202.43C1065.29 205.712 1067.95 208.373 1071.23 208.373Z" fill="#CBCBCB"/>
<path d="M1003.46 240.465C1013.96 240.465 1022.48 231.95 1022.48 221.447C1022.48 210.944 1013.96 202.43 1003.46 202.43C992.95 202.43 984.433 210.944 984.433 221.447C984.433 231.95 992.95 240.465 1003.46 240.465Z" fill="#CBCBCB"/>
<path d="M782.298 339.118C788.865 339.118 794.189 333.797 794.189 327.232C794.189 320.668 788.865 315.346 782.298 315.346C775.732 315.346 770.408 320.668 770.408 327.232C770.408 333.797 775.732 339.118 782.298 339.118Z" fill="#3699FF"/>
<path d="M1100.96 370.022C1107.52 370.022 1112.85 364.7 1112.85 358.136C1112.85 351.571 1107.52 346.25 1100.96 346.25C1094.39 346.25 1089.07 351.571 1089.07 358.136C1089.07 364.7 1094.39 370.022 1100.96 370.022Z" fill="#3699FF"/>
<path d="M959.463 387.851C963.403 387.851 966.597 384.658 966.597 380.719C966.597 376.781 963.403 373.588 959.463 373.588C955.523 373.588 952.329 376.781 952.329 380.719C952.329 384.658 955.523 387.851 959.463 387.851Z" fill="#E6E6E6"/>
<path d="M410.134 612.496C414.074 612.496 417.268 609.303 417.268 605.364C417.268 601.425 414.074 598.232 410.134 598.232C406.194 598.232 403 601.425 403 605.364C403 609.303 406.194 612.496 410.134 612.496Z" fill="#E6E6E6"/>
<path d="M832.238 803.859C836.178 803.859 839.372 800.666 839.372 796.728C839.372 792.789 836.178 789.596 832.238 789.596C828.298 789.596 825.104 792.789 825.104 796.728C825.104 800.666 828.298 803.859 832.238 803.859Z" fill="#E6E6E6"/>
<path d="M944.007 592.332L940.447 595.868L936.91 592.308L934.537 594.665L938.073 598.225L934.512 601.759L936.87 604.133L940.431 600.597L943.968 604.157L946.341 601.8L942.804 598.24L946.365 594.705L944.007 592.332Z" fill="#3699FF"/>
<path d="M471.965 708.815L468.404 712.349L464.868 708.79L462.494 711.147L466.031 714.707L462.47 718.241L464.828 720.615L468.388 717.079L471.925 720.639L474.299 718.282L470.762 714.723L474.324 711.187L471.965 708.815Z" fill="#E6E6E6"/>
<path d="M500.502 501.999L496.941 505.534L493.405 501.975L491.03 504.331L494.568 507.891L491.006 511.427L493.364 513.799L496.924 510.264L500.462 513.823L502.836 511.467L499.299 507.907L502.86 504.371L500.502 501.999Z" fill="#E6E6E6"/>
<path d="M1122.36 282.109L1118.8 285.643L1115.26 282.084L1112.89 284.441L1116.43 288L1112.87 291.536L1115.22 293.909L1118.78 290.374L1122.32 293.933L1124.7 291.577L1121.16 288.017L1124.72 284.481L1122.36 282.109Z" fill="#E6E6E6"/>
<path d="M841.752 380.762L838.191 384.298L834.654 380.738L832.28 383.095L835.816 386.654L832.256 390.189L834.613 392.563L838.174 389.027L841.712 392.587L844.085 390.23L840.549 386.67L844.109 383.135L841.752 380.762Z" fill="#E6E6E6"/>
<path opacity="0.8" d="M866.448 557.003L902.576 514.723L938.703 472.444L959.098 448.577C960.226 447.257 958.485 445.196 957.356 446.517L921.229 488.796L885.101 531.075L864.707 554.942C863.578 556.263 865.32 558.323 866.448 557.003V557.003Z" fill="url(#paint6_linear)"/>
<path opacity="0.8" d="M802.241 709.143L838.369 666.864L874.496 624.585L894.891 600.717C896.019 599.397 894.278 597.337 893.149 598.657L857.022 640.936L820.894 683.215L800.5 707.083C799.371 708.403 801.113 710.463 802.241 709.143V709.143Z" fill="url(#paint7_linear)"/>
<path d="M730.576 527.511L730.885 528.129L730.576 528.699V527.511Z" fill="black"/>
<rect x="1166.6" y="600.6" width="14.8" height="14.8" rx="1.4" stroke="#C4C4C4" stroke-width="1.2"/>
<defs>
<linearGradient id="paint0_linear" x1="18412.8" y1="96620.8" x2="495.249" y2="91770.4" gradientUnits="userSpaceOnUse">
<stop stop-color="#010101" stop-opacity="0"/>
<stop offset="0.95" stop-color="#010101"/>
</linearGradient>
<linearGradient id="paint1_linear" x1="16375.8" y1="99608.2" x2="6415.27" y2="98815.4" gradientUnits="userSpaceOnUse">
<stop stop-color="#010101" stop-opacity="0"/>
<stop offset="0.95" stop-color="#010101"/>
</linearGradient>
<linearGradient id="paint2_linear" x1="25225.1" y1="21637.7" x2="26092.7" y2="41797.8" gradientUnits="userSpaceOnUse">
<stop stop-color="#010101" stop-opacity="0"/>
<stop offset="0.95" stop-color="#3699FF"/>
</linearGradient>
<linearGradient id="paint3_linear" x1="716.682" y1="350.078" x2="913.135" y2="339.898" gradientUnits="userSpaceOnUse">
<stop stop-color="#3699FF"/>
<stop offset="0.95" stop-color="white"/>
</linearGradient>
<linearGradient id="paint4_linear" x1="24262.8" y1="41669.6" x2="18838" y2="81184.5" gradientUnits="userSpaceOnUse">
<stop stop-color="#010101" stop-opacity="0"/>
<stop offset="0.95" stop-color="#010101"/>
</linearGradient>
<linearGradient id="paint5_linear" x1="47312.5" y1="29277.4" x2="42930.2" y2="61250.2" gradientUnits="userSpaceOnUse">
<stop stop-color="#010101" stop-opacity="0"/>
<stop offset="0.95" stop-color="#3699FF"/>
</linearGradient>
<linearGradient id="paint6_linear" x1="864.341" y1="501.76" x2="959.463" y2="501.76" gradientUnits="userSpaceOnUse">
<stop stop-color="white"/>
<stop offset="1" stop-color="white" stop-opacity="0.3"/>
</linearGradient>
<linearGradient id="paint7_linear" x1="60848.1" y1="60213.2" x2="69105.7" y2="60213.2" gradientUnits="userSpaceOnUse">
<stop stop-color="white"/>
<stop offset="1" stop-color="white" stop-opacity="0.3"/>
</linearGradient>
</defs>
</svg>
